<mxfile host="Electron" agent="Mozilla/5.0 (Windows NT 10.0; Win64; x64) AppleWebKit/537.36 (KHTML, like Gecko) draw.io/26.2.2 Chrome/134.0.6998.178 Electron/35.1.2 Safari/537.36" version="26.2.2">
  <diagram name="Page-1" id="hNcaDae6IND89epAfZUG">
    <mxGraphModel dx="1428" dy="849" grid="1" gridSize="10" guides="1" tooltips="1" connect="1" arrows="1" fold="1" page="1" pageScale="1" pageWidth="827" pageHeight="1169" math="0" shadow="0">
      <root>
        <mxCell id="0" />
        <mxCell id="1" parent="0" />
        <mxCell id="3V7Fx5w4a_Ztlf8b_gAw-4" style="edgeStyle=orthogonalEdgeStyle;rounded=0;orthogonalLoop=1;jettySize=auto;html=1;exitX=1;exitY=0.25;exitDx=0;exitDy=0;entryX=0;entryY=0.25;entryDx=0;entryDy=0;" edge="1" parent="1" source="3V7Fx5w4a_Ztlf8b_gAw-1" target="3V7Fx5w4a_Ztlf8b_gAw-2">
          <mxGeometry relative="1" as="geometry" />
        </mxCell>
        <mxCell id="3V7Fx5w4a_Ztlf8b_gAw-6" style="edgeStyle=orthogonalEdgeStyle;rounded=0;orthogonalLoop=1;jettySize=auto;html=1;exitX=0.5;exitY=1;exitDx=0;exitDy=0;entryX=0;entryY=0.5;entryDx=0;entryDy=0;" edge="1" parent="1" source="3V7Fx5w4a_Ztlf8b_gAw-1" target="3V7Fx5w4a_Ztlf8b_gAw-3">
          <mxGeometry relative="1" as="geometry" />
        </mxCell>
        <mxCell id="3V7Fx5w4a_Ztlf8b_gAw-1" value="Client" style="rounded=0;whiteSpace=wrap;html=1;" vertex="1" parent="1">
          <mxGeometry x="110" y="200" width="120" height="60" as="geometry" />
        </mxCell>
        <mxCell id="3V7Fx5w4a_Ztlf8b_gAw-5" style="edgeStyle=orthogonalEdgeStyle;rounded=0;orthogonalLoop=1;jettySize=auto;html=1;exitX=0;exitY=0.75;exitDx=0;exitDy=0;entryX=1;entryY=0.75;entryDx=0;entryDy=0;" edge="1" parent="1" source="3V7Fx5w4a_Ztlf8b_gAw-2" target="3V7Fx5w4a_Ztlf8b_gAw-1">
          <mxGeometry relative="1" as="geometry" />
        </mxCell>
        <mxCell id="3V7Fx5w4a_Ztlf8b_gAw-2" value="Auth0 của Okta&lt;div&gt;(Máy chủ uỷ quyền)&lt;/div&gt;" style="rounded=0;whiteSpace=wrap;html=1;" vertex="1" parent="1">
          <mxGeometry x="430" y="200" width="120" height="60" as="geometry" />
        </mxCell>
        <mxCell id="3V7Fx5w4a_Ztlf8b_gAw-3" value="API cá nhân" style="rounded=0;whiteSpace=wrap;html=1;" vertex="1" parent="1">
          <mxGeometry x="270" y="320" width="120" height="60" as="geometry" />
        </mxCell>
        <mxCell id="3V7Fx5w4a_Ztlf8b_gAw-7" value="1" style="text;html=1;align=center;verticalAlign=middle;resizable=0;points=[];autosize=1;strokeColor=none;fillColor=none;fontSize=16;" vertex="1" parent="1">
          <mxGeometry x="315" y="184" width="30" height="30" as="geometry" />
        </mxCell>
        <mxCell id="3V7Fx5w4a_Ztlf8b_gAw-8" value="2" style="text;html=1;align=center;verticalAlign=middle;resizable=0;points=[];autosize=1;strokeColor=none;fillColor=none;fontSize=16;" vertex="1" parent="1">
          <mxGeometry x="317" y="245" width="30" height="30" as="geometry" />
        </mxCell>
        <mxCell id="3V7Fx5w4a_Ztlf8b_gAw-9" value="3" style="text;html=1;align=center;verticalAlign=middle;resizable=0;points=[];autosize=1;strokeColor=none;fillColor=none;fontSize=16;" vertex="1" parent="1">
          <mxGeometry x="140" y="280" width="30" height="30" as="geometry" />
        </mxCell>
      </root>
    </mxGraphModel>
  </diagram>
</mxfile>
